<svg width="48" height="48" viewBox="0 0 48 48" fill="none" xmlns="http://www.w3.org/2000/svg">
<path d="M24.4563 18.2607C24.1087 18.2607 23.827 18.5424 23.8269 18.89L23.8269 23.8214L18.8956 23.8214C18.5522 23.8273 18.2771 24.1074 18.2771 24.4507C18.2771 24.7941 18.5522 25.0741 18.8956 25.0801L23.8269 25.0801L23.8269 30.0114C23.823 30.2389 23.9421 30.4508 24.1384 30.5657C24.3347 30.6805 24.5778 30.6805 24.7742 30.5657C24.9705 30.4508 25.0896 30.2389 25.0856 30.0114L25.0856 25.0801C25.0856 25.0801 29.6737 25.086 30.017 25.0801C30.3603 25.0741 30.6355 24.7953 30.6355 24.4507C30.6355 24.1061 30.3603 23.8273 30.017 23.8214C29.6737 23.8154 25.0856 23.8214 25.0856 23.8214L25.0856 18.89C25.0856 18.5424 24.8038 18.2607 24.4563 18.2607Z" fill="#2CCDA0" stroke="#2CCDA0" stroke-width="0.6"/>
<mask id="path-2-inside-1" fill="white">
<path fill-rule="evenodd" clip-rule="evenodd" d="M24 46.8C36.5921 46.8 46.8 36.5921 46.8 24C46.8 11.4079 36.5921 1.2 24 1.2C11.4079 1.2 1.2 11.4079 1.2 24C1.2 36.5921 11.4079 46.8 24 46.8ZM24 48C37.2548 48 48 37.2548 48 24C48 10.7452 37.2548 0 24 0C10.7452 0 0 10.7452 0 24C0 37.2548 10.7452 48 24 48Z"/>
</mask>
<path fill-rule="evenodd" clip-rule="evenodd" d="M24 46.8C36.5921 46.8 46.8 36.5921 46.8 24C46.8 11.4079 36.5921 1.2 24 1.2C11.4079 1.2 1.2 11.4079 1.2 24C1.2 36.5921 11.4079 46.8 24 46.8ZM24 48C37.2548 48 48 37.2548 48 24C48 10.7452 37.2548 0 24 0C10.7452 0 0 10.7452 0 24C0 37.2548 10.7452 48 24 48Z" fill="#748AA1"/>
<path d="M45.6 24C45.6 35.9293 35.9293 45.6 24 45.6V48C37.2548 48 48 37.2548 48 24H45.6ZM24 2.4C35.9293 2.4 45.6 12.0706 45.6 24H48C48 10.7452 37.2548 0 24 0V2.4ZM2.4 24C2.4 12.0706 12.0706 2.4 24 2.4V0C10.7452 0 0 10.7452 0 24H2.4ZM24 45.6C12.0706 45.6 2.4 35.9293 2.4 24H0C0 37.2548 10.7452 48 24 48V45.6ZM46.8 24C46.8 36.5921 36.5921 46.8 24 46.8V49.2C37.9176 49.2 49.2 37.9176 49.2 24H46.8ZM24 1.2C36.5921 1.2 46.8 11.4079 46.8 24H49.2C49.2 10.0824 37.9176 -1.2 24 -1.2V1.2ZM1.2 24C1.2 11.4079 11.4079 1.2 24 1.2V-1.2C10.0824 -1.2 -1.2 10.0824 -1.2 24H1.2ZM24 46.8C11.4079 46.8 1.2 36.5921 1.2 24H-1.2C-1.2 37.9176 10.0824 49.2 24 49.2V46.8Z" fill="#2CCDA0" mask="url(#path-2-inside-1)"/>
</svg>
