<?xml version="1.0" encoding="utf-8"?>
<!-- Generator: Adobe Illustrator 16.0.0, SVG Export Plug-In . SVG Version: 6.00 Build 0)  -->
<!DOCTYPE svg PUBLIC "-//W3C//DTD SVG 1.1//EN" "http://www.w3.org/Graphics/SVG/1.1/DTD/svg11.dtd">
<svg version="1.1" id="Layer_1" xmlns="http://www.w3.org/2000/svg" xmlns:xlink="http://www.w3.org/1999/xlink" x="0px" y="0px"
	 width="100px" height="100px" viewBox="0 0 100 100" enable-background="new 0 0 100 100" xml:space="preserve">
<rect fill="#212121" width="100" height="100"/>
<g id="_x2022_-Dashboard-_x2F_-Feed">
	<g id="Dashboard-v2-Post-states-on-feed" transform="translate(-170.000000, -12.000000)">
		<g id="Nav">
			<g id="Shares" transform="translate(144.000000, 0.000000)">
				<g id="cssymbol" transform="translate(24.000000, 8.000000)">
					<path id="cs-symbol" fill="#FFFFFF" d="M37.908,73.945c-10.571-0.601-18.959-9.363-18.959-20.084
						c0-10.426,7.931-18.999,18.089-20.015c5.016-5.004,11.939-8.097,19.58-8.097c15.316,0,27.732,12.415,27.732,27.731
						c0,15.313-12.416,27.729-27.732,27.729C49.408,81.21,42.841,78.454,37.908,73.945z M37.908,73.945
						c0.384,0.019,0.769,0.031,1.156,0.031c11.11,0,20.116-9.005,20.116-20.115c0-11.109-9.006-20.115-20.116-20.115
						c-0.684,0-1.36,0.034-2.026,0.101c-5.032,5.02-8.147,11.964-8.147,19.635C28.891,61.583,32.366,68.874,37.908,73.945z"/>
				</g>
			</g>
		</g>
	</g>
</g>
</svg>
