<svg width="18" height="18" viewBox="0 0 18 18" fill="none" xmlns="http://www.w3.org/2000/svg">
<path fill-rule="evenodd" clip-rule="evenodd" d="M13.4321 0.323668C13.5784 0.158123 13.8312 0.142506 13.9967 0.288786L16.8228 2.78594C16.9038 2.8575 16.9523 2.95878 16.9575 3.06673C16.9626 3.17467 16.9238 3.2801 16.85 3.359L5.57165 15.4107C5.54489 15.4393 5.51408 15.4638 5.4802 15.4835L1.61114 17.7263C1.4683 17.8091 1.28927 17.7957 1.16043 17.6924C1.03158 17.5892 0.979395 17.4174 1.02905 17.26L2.42534 12.8321C2.44217 12.7787 2.47001 12.7295 2.50707 12.6875L13.4321 0.323668ZM3.16277 13.1537L2.10218 16.517L5.02789 14.821L15.9846 3.1129L13.7668 1.15314L3.16277 13.1537Z" fill="#2CCDA0"/>
<path fill-rule="evenodd" clip-rule="evenodd" d="M15.065 5.1311L12.239 2.63394L12.7687 2.03445L15.5947 4.53161L15.065 5.1311Z" fill="#2CCDA0"/>
<path fill-rule="evenodd" clip-rule="evenodd" d="M4.99425 15.1045L2.87473 13.2316L3.40445 12.6321L5.52397 14.505L4.99425 15.1045Z" fill="#2CCDA0"/>
</svg>
