<?xml version="1.0" encoding="UTF-8"?>
<svg width="16px" height="12px" viewBox="0 0 16 12" version="1.1" xmlns="http://www.w3.org/2000/svg" xmlns:xlink="http://www.w3.org/1999/xlink">
    <!-- Generator: sketchtool 52.2 (67145) - http://www.bohemiancoding.com/sketch -->
    <title>5725621C-878E-489D-A68B-B346F14BD0AF</title>
    <desc>Created with sketchtool.</desc>
    <g id="•-Dashboard-/-Feed-/-Onboarding" stroke="none" stroke-width="1" fill="none" fill-rule="evenodd">
        <g id="Onboarding-10-Status" transform="translate(-258.000000, -234.000000)" fill="#9E9E9E" fill-rule="nonzero">
            <g id="Admin-Setup" transform="translate(144.000000, 216.000000)">
                <g id="icon/addadmin" transform="translate(114.000000, 16.000000)">
                    <g id="ic_addadmin">
                        <path d="M10,8 C11.4733333,8 12.6666667,6.80666667 12.6666667,5.33333333 C12.6666667,3.86 11.4733333,2.66666667 10,2.66666667 C8.52666667,2.66666667 7.33333333,3.86 7.33333333,5.33333333 C7.33333333,6.80666667 8.52666667,8 10,8 Z M4,6.66666667 L4,4.66666667 L2.66666667,4.66666667 L2.66666667,6.66666667 L0.666666667,6.66666667 L0.666666667,8 L2.66666667,8 L2.66666667,10 L4,10 L4,8 L6,8 L6,6.66666667 L4,6.66666667 Z M10,9.33333333 C8.22,9.33333333 4.66666667,10.2266667 4.66666667,12 L4.66666667,13.3333333 L15.3333333,13.3333333 L15.3333333,12 C15.3333333,10.2266667 11.78,9.33333333 10,9.33333333 Z" id="Shape"></path>
                    </g>
                </g>
            </g>
        </g>
    </g>
</svg>