<?xml version="1.0" encoding="UTF-8"?>
<svg width="14px" height="16px" viewBox="0 0 14 16" version="1.1" xmlns="http://www.w3.org/2000/svg" xmlns:xlink="http://www.w3.org/1999/xlink">
    <!-- Generator: Sketch 50.2 (55047) - http://www.bohemiancoding.com/sketch -->
    <title>ic_cal</title>
    <desc>Created with Sketch.</desc>
    <defs></defs>
    <g id="•-Backend" stroke="none" stroke-width="1" fill="none" fill-rule="evenodd">
        <g id="Backend/Performance" transform="translate(-65.000000, -88.000000)" fill="#FFFFFF" fill-rule="nonzero">
            <g id="Dates" transform="translate(32.000000, 80.000000)">
                <g id="ic_cal" transform="translate(32.000000, 8.000000)">
                    <path d="M13.3333333,2 L12.6666667,2 L12.6666667,0.666666667 L11.3333333,0.666666667 L11.3333333,2 L4.66666667,2 L4.66666667,0.666666667 L3.33333333,0.666666667 L3.33333333,2 L2.66666667,2 C1.93333333,2 1.33333333,2.6 1.33333333,3.33333333 L1.33333333,14 C1.33333333,14.7333333 1.93333333,15.3333333 2.66666667,15.3333333 L13.3333333,15.3333333 C14.0666667,15.3333333 14.6666667,14.7333333 14.6666667,14 L14.6666667,3.33333333 C14.6666667,2.6 14.0666667,2 13.3333333,2 Z M13.3333333,14 L2.66666667,14 L2.66666667,5.33333333 L13.3333333,5.33333333 L13.3333333,14 Z" id="Shape"></path>
                </g>
            </g>
        </g>
    </g>
</svg>