<?xml version="1.0" encoding="UTF-8"?>
<svg width="18px" height="16px" viewBox="0 0 18 16" version="1.1" xmlns="http://www.w3.org/2000/svg" xmlns:xlink="http://www.w3.org/1999/xlink">
    <!-- Generator: sketchtool 49.3 (51167) - http://www.bohemiancoding.com/sketch -->
    <title>D950AD3A-875A-4B35-9A7F-697A00556FF6</title>
    <desc>Created with sketchtool.</desc>
    <defs></defs>
    <g id="Files" stroke="none" stroke-width="1" fill="none" fill-rule="evenodd">
        <g transform="translate(-712.000000, -24.000000)" fill="#FFFFFF" id="Navigation">
            <g>
                <g id="NavItems" transform="translate(16.000000, 16.000000)">
                    <g id="Contents" transform="translate(685.000000, 0.000000)">
                        <g id="ic_folder_open" transform="translate(8.000000, 4.000000)">
                            <path d="M19.2,6 L12,6 L10.2,4 L4.8,4 C3.81,4 3.009,4.9 3.009,6 L3,18 C3,19.1 3.81,20 4.8,20 L19.2,20 C20.19,20 21,19.1 21,18 L21,8 C21,6.9 20.19,6 19.2,6 L19.2,6 Z M19.2,18 L4.8,18 L4.8,8 L19.2,8 L19.2,18 L19.2,18 Z" id="Shape"></path>
                        </g>
                    </g>
                </g>
            </g>
        </g>
    </g>
</svg>