<?xml version="1.0" encoding="UTF-8"?>
<svg width="18px" height="22px" viewBox="0 0 18 22" version="1.1" xmlns="http://www.w3.org/2000/svg" xmlns:xlink="http://www.w3.org/1999/xlink">
    <!-- Generator: Sketch 50.2 (55047) - http://www.bohemiancoding.com/sketch -->
    <title>ic_IMAGE</title>
    <desc>Created with Sketch.</desc>
    <defs></defs>
    <g id="Assets" stroke="none" stroke-width="1" fill="none" fill-rule="evenodd">
        <g id="Artboard-2" transform="translate(-767.000000, -129.000000)">
            <g id="ic_IMAGE" transform="translate(768.000000, 130.000000)">
                <rect id="Rectangle-14" stroke="#0D47A1" x="0" y="0" width="16" height="19.826087" rx="2"></rect>
                <g id="ic_image" transform="translate(2.000000, 4.000000)" fill="#0D47A1">
                    <path d="M10.5,9.5 L10.5,2.5 C10.5,1.95 10.05,1.5 9.5,1.5 L2.5,1.5 C1.95,1.5 1.5,1.95 1.5,2.5 L1.5,9.5 C1.5,10.05 1.95,10.5 2.5,10.5 L9.5,10.5 C10.05,10.5 10.5,10.05 10.5,9.5 L10.5,9.5 Z M4.25,6.75 L5.5,8.255 L7.25,6 L9.5,9 L2.5,9 L4.25,6.75 L4.25,6.75 Z" id="Shape"></path>
                </g>
            </g>
        </g>
    </g>
</svg>