<?xml version="1.0" encoding="UTF-8"?>
<svg width="44px" height="60px" viewBox="0 0 44 60" version="1.1" xmlns="http://www.w3.org/2000/svg" xmlns:xlink="http://www.w3.org/1999/xlink">
    <!-- Generator: sketchtool 51.3 (57544) - http://www.bohemiancoding.com/sketch -->
    <title>AE306559-996A-4391-BAA1-EEA74F218572</title>
    <desc>Created with sketchtool.</desc>
    <defs></defs>
    <g id="•-Dashboard-/-Feed-/-Onboarding" stroke="none" stroke-width="1" fill="none" fill-rule="evenodd">
        <g id="Onboarding-10-Status" transform="translate(-502.000000, -470.000000)" fill="#E6ECF5" fill-rule="nonzero">
            <g id="Community" transform="translate(404.000000, 396.000000)">
                <path d="M137.111111,96 L137.111111,93.3333333 C137.111111,83.024018 129.450206,74.6666667 120,74.6666667 C110.549794,74.6666667 102.888889,83.024018 102.888889,93.3333333 L102.888889,96 C100.18883,96 98,98.3878147 98,101.333333 L98,128 C98,130.945519 100.18883,133.333333 102.888889,133.333333 L137.111111,133.333333 C139.81117,133.333333 142,130.945519 142,128 L142,101.333333 C142,98.3878147 139.81117,96 137.111111,96 Z M122.444444,116.533333 L122.444444,120 C122.444444,121.472759 121.350029,122.666667 120,122.666667 C118.649971,122.666667 117.555556,121.472759 117.555556,120 L117.555556,116.533333 C116.066902,115.596049 115.138784,113.874812 115.111111,112 C115.111111,109.054481 117.299941,106.666667 120,106.666667 C122.700059,106.666667 124.888889,109.054481 124.888889,112 C124.861216,113.874812 123.933098,115.596049 122.444444,116.533333 Z M127.333333,96 L112.666667,96 L112.666667,93.3333333 C112.666667,88.9150553 115.949912,85.3333333 120,85.3333333 C124.050088,85.3333333 127.333333,88.9150553 127.333333,93.3333333 L127.333333,96 Z" id="ic_lock"></path>
            </g>
        </g>
    </g>
</svg>