<?xml version="1.0" encoding="UTF-8"?>
<svg width="22px" height="7px" viewBox="0 0 22 7" version="1.1" xmlns="http://www.w3.org/2000/svg" xmlns:xlink="http://www.w3.org/1999/xlink">
    <!-- Generator: Sketch 50.2 (55047) - http://www.bohemiancoding.com/sketch -->
    <title>ic_more</title>
    <desc>Created with Sketch.</desc>
    <defs></defs>
    <g id="--Symbols" stroke="none" stroke-width="1" fill="none" fill-rule="evenodd">
        <g id="Backend/PerfTable/List" transform="translate(-1345.000000, -20.000000)" fill="#9E9E9E" fill-rule="nonzero">
            <g id="ic_more" transform="translate(1340.000000, 4.800000)">
                <path d="M7.66666667,16.1333333 C6.2,16.1333333 5,17.3333333 5,18.8 C5,20.2666667 6.2,21.4666667 7.66666667,21.4666667 C9.13333333,21.4666667 10.3333333,20.2666667 10.3333333,18.8 C10.3333333,17.3333333 9.13333333,16.1333333 7.66666667,16.1333333 Z M23.6666667,16.1333333 C22.2,16.1333333 21,17.3333333 21,18.8 C21,20.2666667 22.2,21.4666667 23.6666667,21.4666667 C25.1333333,21.4666667 26.3333333,20.2666667 26.3333333,18.8 C26.3333333,17.3333333 25.1333333,16.1333333 23.6666667,16.1333333 Z M15.6666667,16.1333333 C14.2,16.1333333 13,17.3333333 13,18.8 C13,20.2666667 14.2,21.4666667 15.6666667,21.4666667 C17.1333333,21.4666667 18.3333333,20.2666667 18.3333333,18.8 C18.3333333,17.3333333 17.1333333,16.1333333 15.6666667,16.1333333 Z" id="Shape"></path>
            </g>
        </g>
    </g>
</svg>