<?xml version="1.0" encoding="UTF-8"?>
<svg width="18px" height="22px" viewBox="0 0 18 22" version="1.1" xmlns="http://www.w3.org/2000/svg" xmlns:xlink="http://www.w3.org/1999/xlink">
    <!-- Generator: Sketch 50.2 (55047) - http://www.bohemiancoding.com/sketch -->
    <title>Group 15</title>
    <desc>Created with Sketch.</desc>
    <defs></defs>
    <g id="Assets" stroke="none" stroke-width="1" fill="none" fill-rule="evenodd">
        <g id="Artboard-2" transform="translate(-716.000000, -39.000000)">
            <g id="Group-15" transform="translate(717.000000, 40.000000)">
                <rect id="Rectangle-14" stroke="#0D47A1" x="0" y="0" width="16" height="19.826087" rx="2"></rect>
                <g id="noun_590293_cc" transform="translate(2.000000, 3.500000)" fill="#0D47A1">
                    <g id="Group">
                        <g id="Shape">
                            <path d="M5.32069838,7.46069873e-14 C4.57207407,7.46069873e-14 3.95641674,0.61565801 3.95641674,1.36428164 C3.95641674,2.29492499 4.47350049,3.45028463 5.01799839,4.53623644 C4.59238536,5.86857438 4.10941056,7.29636537 3.49170831,8.50117994 C2.22742907,8.99724994 1.09994375,9.36596451 0.422074631,9.91235876 C0.411504508,9.92316791 0.401541354,9.93455438 0.39223097,9.9464658 C0.144520032,10.1997856 0,10.5446828 0,10.9142531 C0,11.6628753 0.615657532,12.2785347 1.36428164,12.2785347 C1.72934253,12.2785347 2.08170209,12.1423044 2.3363323,11.8820404 C2.34514467,11.8752846 2.35367849,11.8681731 2.36191258,11.8607235 C2.86089245,11.2648978 3.44924941,10.1840534 3.97347026,9.1961109 C5.18164165,8.72084716 6.44792285,8.23724929 7.66982082,7.94694053 C8.56183045,8.66581613 9.8522788,9.14068696 10.9142531,9.14068696 C11.6628767,9.14068696 12.2785347,8.52502759 12.2785347,7.77640532 C12.2785347,7.02778306 11.6628767,6.41212369 10.9142531,6.41212369 C10.0626096,6.41212369 8.82500106,6.71613257 7.87872645,7.03457718 C7.11171271,6.31452243 6.40701473,5.41522645 5.90051807,4.4594956 C6.26240442,3.34467518 6.68498002,2.22919649 6.68498002,1.36428164 C6.68498002,0.61565801 6.06932282,7.46069873e-14 5.32069838,7.46069873e-14 L5.32069838,7.46069873e-14 Z M5.32069838,0.818568981 C5.62693486,0.818568981 5.86641103,1.05804543 5.86641103,1.36428164 C5.86641103,1.77376122 5.64713919,2.52767417 5.39317584,3.33822663 C5.05382224,2.54971004 4.77498573,1.79319405 4.77498573,1.36428164 C4.77498573,1.05804543 5.01446204,0.818568981 5.32069838,0.818568981 L5.32069838,0.818568981 Z M5.55518429,5.4869702 C5.96551409,6.139663 6.44609185,6.74700708 6.97062648,7.28611661 C6.1615705,7.50734852 5.37141896,7.79081896 4.59166038,8.08763207 C4.96827333,7.23760276 5.26977138,6.35554693 5.55518429,5.4869702 L5.55518429,5.4869702 Z M10.9142531,7.23069267 C11.2204901,7.23069267 11.4599657,7.47016503 11.4599657,7.77640532 C11.4599657,8.08264562 11.2204901,8.32211798 10.9142531,8.32211798 C10.2994615,8.32211798 9.42566779,8.04459581 8.72713909,7.65703068 C9.52893641,7.43031436 10.403833,7.23069267 10.9142531,7.23069267 L10.9142531,7.23069267 Z M2.77119707,9.67360947 C2.38754525,10.3584243 2.00619402,10.9976175 1.73945909,11.3192742 C1.64834213,11.4063972 1.52713348,11.4599657 1.36428164,11.4599657 C1.05804502,11.4599657 0.818568981,11.2204797 0.818568981,10.9142531 C0.818568981,10.770144 0.879817723,10.6270104 0.963523905,10.5348123 C1.2835661,10.2871406 1.97983323,9.9903411 2.77119707,9.67360947 L2.77119707,9.67360947 Z"></path>
                        </g>
                    </g>
                </g>
            </g>
        </g>
    </g>
</svg>