<?xml version="1.0" encoding="UTF-8"?>
<svg width="14px" height="14px" viewBox="0 0 14 14" version="1.1" xmlns="http://www.w3.org/2000/svg" xmlns:xlink="http://www.w3.org/1999/xlink">
    <!-- Generator: sketchtool 49.3 (51167) - http://www.bohemiancoding.com/sketch -->
    <title>91D96423-D3E6-453D-B562-A6419B69A571</title>
    <desc>Created with sketchtool.</desc>
    <defs></defs>
    <g id="Dashboard/Feed" stroke="none" stroke-width="1" fill="none" fill-rule="evenodd">
        <g id="Dashboard-v2-Admin" transform="translate(-1261.000000, -349.000000)" fill="#9E9E9E">
            <g id="Post" transform="translate(664.000000, 328.000000)">
                <g id="ic_settings" transform="translate(596.000000, 20.000000)">
                    <path d="M13.0938041,8.65333333 C13.1212189,8.44 13.1417799,8.22666667 13.1417799,8 C13.1417799,7.77333333 13.1212189,7.56 13.0938041,7.34666667 L14.5399323,6.24666667 C14.6701524,6.14666667 14.7044208,5.96666667 14.6221766,5.82 L13.2514389,3.51333333 C13.1691947,3.36666667 12.9841451,3.31333333 12.833364,3.36666667 L11.1267956,4.03333333 C10.7704038,3.76666667 10.3865973,3.54666667 9.9685223,3.38 L9.70808215,1.61333333 C9.68752109,1.45333333 9.54359364,1.33333333 9.37225143,1.33333333 L6.63077618,1.33333333 C6.45943397,1.33333333 6.31550652,1.45333333 6.29494546,1.61333333 L6.03450531,3.38 C5.61643033,3.54666667 5.23262379,3.77333333 4.87623201,4.03333333 L3.16966366,3.36666667 C3.01202883,3.30666667 2.83383294,3.36666667 2.75158868,3.51333333 L1.38085105,5.82 C1.29175311,5.96666667 1.33287524,6.14666667 1.46309531,6.24666667 L2.90922351,7.34666667 C2.88180876,7.56 2.86124769,7.78 2.86124769,8 C2.86124769,8.22 2.88180876,8.44 2.90922351,8.65333333 L1.46309531,9.75333333 C1.33287524,9.85333333 1.29860679,10.0333333 1.38085105,10.18 L2.75158868,12.4866667 C2.83383294,12.6333333 3.01888252,12.6866667 3.16966366,12.6333333 L4.87623201,11.9666667 C5.23262379,12.2333333 5.61643033,12.4533333 6.03450531,12.62 L6.29494546,14.3866667 C6.31550652,14.5466667 6.45943397,14.6666667 6.63077618,14.6666667 L9.37225143,14.6666667 C9.54359364,14.6666667 9.68752109,14.5466667 9.70808215,14.3866667 L9.9685223,12.62 C10.3865973,12.4533333 10.7704038,12.2266667 11.1267956,11.9666667 L12.833364,12.6333333 C12.9909988,12.6933333 13.1691947,12.6333333 13.2514389,12.4866667 L14.6221766,10.18 C14.7044208,10.0333333 14.6701524,9.85333333 14.5399323,9.75333333 L13.0938041,8.65333333 L13.0938041,8.65333333 Z M8.0015138,10.3333333 C6.67875199,10.3333333 5.60272295,9.28666667 5.60272295,8 C5.60272295,6.71333333 6.67875199,5.66666667 8.0015138,5.66666667 C9.32427562,5.66666667 10.4003047,6.71333333 10.4003047,8 C10.4003047,9.28666667 9.32427562,10.3333333 8.0015138,10.3333333 L8.0015138,10.3333333 Z" id="Shape"></path>
                </g>
            </g>
        </g>
    </g>
</svg>