<?xml version="1.0" encoding="UTF-8"?>
<svg width="22px" height="16px" viewBox="0 0 22 16" version="1.1" xmlns="http://www.w3.org/2000/svg" xmlns:xlink="http://www.w3.org/1999/xlink">
    <!-- Generator: sketchtool 52.1 (67048) - http://www.bohemiancoding.com/sketch -->
    <title>76640484-2CDC-4480-9926-0A9345EDCD97</title>
    <desc>Created with sketchtool.</desc>
    <g id="•-Backend" stroke="none" stroke-width="1" fill="none" fill-rule="evenodd">
        <g id="MI-Page-options-v2" transform="translate(-1365.000000, -246.000000)" fill="#0D47A1">
            <g id="Backend/PerfTable/List" transform="translate(32.000000, 230.000000)">
                <g id="Comms" transform="translate(1280.000000, 0.000000)">
                    <g id="icon/email" transform="translate(52.000000, 12.000000)">
                        <path d="M11.5086667,13.265455 L1.396,5.04727383 C1.31937856,4.98606057 1.27077822,4.8968763 1.26112459,4.79977011 C1.25147096,4.70266392 1.2815741,4.60578428 1.34466667,4.53091023 C1.62080472,4.19772463 2.03179649,4.00325115 2.46666667,4.00000118 L21.5333333,4.00000118 C21.998855,3.99941315 22.4370148,4.21803195 22.714,4.58909205 C22.8322238,4.74660181 22.8030072,4.96874471 22.648,5.09091019 L12.4693333,13.2872732 C12.3373978,13.3956959 12.1713449,13.4548779 12,13.4545459 C11.8182537,13.4540754 11.6431588,13.3866896 11.5086667,13.265455 Z M22.7873333,6.1818192 C22.9137479,6.2397757 22.996142,6.36375432 23,6.50181918 L23,18.5454547 C23,19.3487779 22.343351,20 21.5333333,20 L2.46666667,20 C1.65664903,20 1,19.3487779 1,18.5454547 L1,6.42909191 C1.01168286,6.29379335 1.09840699,6.17622323 1.22489072,6.12421219 C1.35137446,6.07220114 1.49654122,6.09441601 1.60133333,6.1818192 L11.032,13.8400005 C11.5808619,14.3055826 12.3898048,14.3055826 12.9386667,13.8400005 L22.3986667,6.22545556 C22.5089283,6.13787038 22.6601193,6.12089588 22.7873333,6.1818192 Z" id="ic_sendmailactive"></path>
                    </g>
                </g>
            </g>
        </g>
    </g>
</svg>