<?xml version="1.0" encoding="UTF-8"?>
<svg width="22px" height="22px" viewBox="0 0 22 22" version="1.1" xmlns="http://www.w3.org/2000/svg" xmlns:xlink="http://www.w3.org/1999/xlink">
    <!-- Generator: sketchtool 51.3 (57544) - http://www.bohemiancoding.com/sketch -->
    <title>CEB0FA39-AC9A-4B40-AC3D-3268FF3DE25E</title>
    <desc>Created with sketchtool.</desc>
    <defs></defs>
    <g id="•-Dashboard-/-Feed-/-Onboarding" stroke="none" stroke-width="1" fill="none" fill-rule="evenodd">
        <g id="Onboarding-01-(Mobile)" transform="translate(-321.000000, -17.000000)" fill="#0D47A1" fill-rule="nonzero">
            <g id="Top-Nav/Mobile/Popup">
                <g id="Button" transform="translate(304.000000, 0.000000)">
                    <g id="icon/size/minimise" transform="translate(16.000000, 16.000000)">
                        <path d="M10.0002727,1.99292622 C9.447779,1.99292622 9.00028409,2.44017113 9.00028409,2.99291485 L9.00028409,7.57811275 L2.71185555,1.29268417 C2.31936001,0.902438609 1.68311724,0.902438609 1.29287167,1.29268417 C0.902376109,1.68242975 0.902376109,2.32142248 1.29287167,2.71166805 L7.57805025,9.00034659 L2.99310235,9.00034659 C2.44035863,9.00034659 1.99311371,9.4478415 1.99311371,10.0003352 C1.99311371,10.5528289 2.44035863,11.0003239 2.99310235,11.0003239 L9.99302281,11.0003239 C10.5452665,11.0003239 11.0002614,10.545329 11.0002614,9.99308531 L11.0002614,2.99291485 C11.0002614,2.44017113 10.5527664,1.99292622 10.0002727,1.99292622 Z M22.7071283,21.2892069 L16.4219498,15.0002784 L21.0071476,15.0002784 C21.5593914,15.0002784 22.0071363,14.5527835 22.0071363,14.0002898 C22.0071363,13.447796 21.5593914,13.0003011 21.0071476,13.0003011 L14.0069772,13.0003011 C13.4542335,13.0003011 13.0002386,13.455796 13.0002386,14.0082897 L13.0002386,21.0082101 C13.0002386,21.5607039 13.4477335,22.0081988 14.0002273,22.0081988 C14.552721,22.0081988 15.0002159,21.5607039 15.0002159,21.0082101 L15.0002159,16.4230122 L21.2888944,22.7081908 C21.68089,23.0986864 22.3171328,23.0986864 22.7071283,22.7081908 C23.0976239,22.3181952 23.0976239,21.6794525 22.7071283,21.2892069 Z" id="ic_minimise" transform="translate(12.000000, 12.000531) scale(-1, 1) translate(-12.000000, -12.000531) "></path>
                    </g>
                </g>
            </g>
        </g>
    </g>
</svg>