<svg width="24" height="21" viewBox="0 0 24 21" fill="none" xmlns="http://www.w3.org/2000/svg">
<path fill-rule="evenodd" clip-rule="evenodd" d="M0 12C0 5.37258 5.37258 0 12 0C18.6274 0 24 5.37258 24 12C24 15.3358 22.6389 18.3536 20.4418 20.5285C20.2626 20.706 20.0184 20.8 19.7661 20.8H4.23386C3.98164 20.8 3.73744 20.706 3.55819 20.5285C1.36109 18.3536 0 15.3358 0 12ZM11.9984 4.79844C12.8821 4.79844 13.5984 4.08209 13.5984 3.19844C13.5984 2.31478 12.8821 1.59844 11.9984 1.59844C11.1148 1.59844 10.3984 2.31478 10.3984 3.19844C10.3984 4.08209 11.1148 4.79844 11.9984 4.79844ZM19.1984 5.59844C19.1984 6.48209 18.4821 7.19844 17.5984 7.19844C16.7148 7.19844 15.9984 6.48209 15.9984 5.59844C15.9984 4.71478 16.7148 3.99844 17.5984 3.99844C18.4821 3.99844 19.1984 4.71478 19.1984 5.59844ZM20.7984 12.7984C21.6821 12.7984 22.3984 12.0821 22.3984 11.1984C22.3984 10.3148 21.6821 9.59844 20.7984 9.59844C19.9148 9.59844 19.1984 10.3148 19.1984 11.1984C19.1984 12.0821 19.9148 12.7984 20.7984 12.7984ZM4.79844 11.1984C4.79844 12.0821 4.08209 12.7984 3.19844 12.7984C2.31478 12.7984 1.59844 12.0821 1.59844 11.1984C1.59844 10.3148 2.31478 9.59844 3.19844 9.59844C4.08209 9.59844 4.79844 10.3148 4.79844 11.1984ZM6.39844 7.19844C7.28209 7.19844 7.99844 6.48209 7.99844 5.59844C7.99844 4.71478 7.28209 3.99844 6.39844 3.99844C5.51478 3.99844 4.79844 4.71478 4.79844 5.59844C4.79844 6.48209 5.51478 7.19844 6.39844 7.19844ZM14.4 15.2C14.4 16.5255 13.3255 17.6 12 17.6C10.6745 17.6 9.6 16.5255 9.6 15.2C9.6 14.118 10.316 13.2033 11.3 12.9037C11.7001 12.7819 12.0807 12.5392 12.2237 12.1461L13.728 8.01313C13.8754 7.60836 14.3229 7.39966 14.7277 7.54698C15.1325 7.6943 15.3412 8.14186 15.1938 8.54663L13.7145 12.6111C13.5655 13.0204 13.7178 13.4685 13.9675 13.8253C14.2401 14.2146 14.4 14.6886 14.4 15.2Z" fill="white"/>
</svg>
