<?xml version="1.0" encoding="UTF-8"?>
<svg width="68px" height="68px" viewBox="0 0 68 68" version="1.1" xmlns="http://www.w3.org/2000/svg" xmlns:xlink="http://www.w3.org/1999/xlink">
    <!-- Generator: sketchtool 50.2 (55047) - http://www.bohemiancoding.com/sketch -->
    <title>99A1EC81-4504-4DBA-95E8-584CD9A747FB</title>
    <desc>Created with sketchtool.</desc>
    <defs></defs>
    <g id="•-Dashboard-/-Feed" stroke="none" stroke-width="1" fill="none" fill-rule="evenodd">
        <g id="Onboarding-01" transform="translate(-770.000000, -486.000000)">
            <g id="Popuup" transform="translate(320.000000, 256.000000)">
                <g id="F03" transform="translate(436.000000, 216.000000)">
                    <g id="step03">
                        <path d="M52.0114286,28.56 C45.2228571,33.8057143 36.5828571,36.8914286 27.9428571,37.2 L15.6,80.4 L58.8,68.0571429 C59.1085714,59.4171429 62.1942857,51.0857143 67.44,43.9885714" id="_Path_" stroke="#8192AA" stroke-width="3" stroke-linecap="round" stroke-linejoin="round"></path>
                        <circle id="_Path_2" stroke="#8192AA" stroke-width="3" stroke-linecap="round" stroke-linejoin="round" cx="41.8285714" cy="54.1714286" r="4.62857143"></circle>
                        <path d="M15.6,80.4 L38.1257143,58.1828571" id="_Path_3" stroke="#8192AA" stroke-width="3" stroke-linecap="round" stroke-linejoin="round"></path>
                        <path d="M79.4742857,35.04 L60.96,16.5257143 C59.7257143,15.2914286 57.8742857,15.2914286 56.64,16.5257143 L50.4685714,22.6971429 C49.2342857,23.9314286 49.2342857,25.7828571 50.4685714,27.0171429 L68.9828571,45.5314286 C70.2171429,46.7657143 72.0685714,46.7657143 73.3028571,45.5314286 L79.4742857,39.36 C80.7085714,38.1257143 80.7085714,36.2742857 79.4742857,35.04 Z" id="_Path_4" stroke="#8192AA" stroke-width="3" stroke-linecap="round" stroke-linejoin="round"></path>
                        <rect id="Rectangle" x="0" y="0" width="96" height="96"></rect>
                    </g>
                </g>
            </g>
        </g>
    </g>
</svg>