<?xml version="1.0" encoding="UTF-8"?>
<svg width="84px" height="54px" viewBox="0 0 84 54" version="1.1" xmlns="http://www.w3.org/2000/svg" xmlns:xlink="http://www.w3.org/1999/xlink">
    <!-- Generator: sketchtool 50.2 (55047) - http://www.bohemiancoding.com/sketch -->
    <title>84C28767-7A3E-4744-AC4A-05202CCAF742</title>
    <desc>Created with sketchtool.</desc>
    <defs></defs>
    <g id="•-Dashboard-/-Feed" stroke="none" stroke-width="1" fill="none" fill-rule="evenodd">
        <g id="Onboarding-01" transform="translate(-930.000000, -495.000000)">
            <g id="Popuup" transform="translate(320.000000, 256.000000)">
                <g id="F04" transform="translate(604.000000, 216.000000)">
                    <g id="step04">
                        <ellipse id="_Path_" stroke="#8192AA" stroke-width="3" stroke-linecap="round" stroke-linejoin="round" cx="48" cy="35.7142857" rx="10.9090909" ry="10.7142857"></ellipse>
                        <path d="M48,51.984127 C42.1923238,52.2072662 36.5026037,54.3254817 31.3858586,58.1693755 C28.676969,60.1196392 26.9790464,64.0257882 26.989899,68.2824827 L26.989899,70.3592814 C26.9812658,71.4806598 27.2941595,72.5602623 27.8588436,73.3574715 C28.4235278,74.1546808 29.1930707,74.6032394 29.9959596,74.6031746 L66.0040404,74.6031746 C66.8069293,74.6032394 67.5764722,74.1546808 68.1411564,73.3574715 C68.7058405,72.5602623 69.0187342,71.4806598 69.010101,70.3592814 L69.010101,68.2824827 C69.0088266,64.0420163 67.312677,60.1573663 64.6141414,58.2145233 C59.5001674,54.3549108 53.8102959,52.221177 48,51.984127 Z" id="_Path_2" stroke="#8192AA" stroke-width="3" stroke-linecap="round" stroke-linejoin="round"></path>
                        <ellipse id="_Path_3" stroke="#8192AA" stroke-width="3" stroke-linecap="round" stroke-linejoin="round" cx="22.5454545" cy="32.9365079" rx="6.46464646" ry="6.34920635"></ellipse>
                        <path d="M33.9393939,56.0884354 C34.145017,55.728548 34.2565315,55.317836 34.2626263,54.8979592 L34.2626263,53.8095238 C34.2667351,51.7169558 33.2549328,49.7671154 31.579798,48.6394558 C28.5053632,46.5831301 24.9725602,45.4104001 21.3333333,45.2380952 C17.6941065,45.4104001 14.1613035,46.5831301 11.0868687,48.6394558 C9.41173389,49.7671154 8.39993156,51.7169558 8.4040404,53.8095238 L8.4040404,54.8979592 C8.32980124,56.0511167 9.15148088,57.0522906 10.2464646,57.1428571 L31.4828283,57.1428571" id="_Path_4" stroke="#8192AA" stroke-width="3" stroke-linecap="round" stroke-linejoin="round"></path>
                        <ellipse id="_Path_5" stroke="#8192AA" stroke-width="3" stroke-linecap="round" stroke-linejoin="round" cx="73.4545455" cy="32.9365079" rx="6.46464646" ry="6.34920635"></ellipse>
                        <path d="M62.0606061,55.9658327 C61.854983,55.6100118 61.7434685,55.2039406 61.7373737,54.7888082 L61.7373737,53.7126715 C61.7332649,51.6437483 62.7450672,49.71594 64.420202,48.6010223 C67.4946368,46.567932 71.0274398,45.4084531 74.6666667,45.2380952 C78.3058935,45.4084531 81.8386965,46.567932 84.9131313,48.6010223 C86.6276669,49.7413036 87.645009,51.7306765 87.5959596,53.8471886 L87.5959596,54.9233253 C87.6701988,56.0634528 86.8485191,57.0533139 85.7535354,57.1428571 L64.5171717,57.1428571" id="_Path_6" stroke="#8192AA" stroke-width="3" stroke-linecap="round" stroke-linejoin="round"></path>
                        <rect id="Rectangle" x="0" y="0" width="96" height="96"></rect>
                    </g>
                </g>
            </g>
        </g>
    </g>
</svg>