<svg width="31" height="24" viewBox="0 0 31 24" fill="none" xmlns="http://www.w3.org/2000/svg">
<rect x="20.0856" y="4.22871" width="6.4" height="9.82857" rx="3.2" stroke="white" stroke-width="1.6"/>
<path d="M16.9999 14.8574H25.5713C27.7804 14.8574 29.5713 16.6483 29.5713 18.8574V19.5717C29.5713 20.124 29.1236 20.5717 28.5713 20.5717H23.2856" stroke="white" stroke-width="1.6"/>
<rect x="-0.8" y="0.8" width="6.4" height="9.82857" rx="3.2" transform="matrix(-1 0 0 1 9.68564 3.42871)" stroke="white" stroke-width="1.6"/>
<path d="M13.5714 14.8574H4.99998C2.79084 14.8574 0.999983 16.6483 0.999983 18.8574V19.5717C0.999983 20.124 1.4477 20.5717 1.99998 20.5717H7.2857" stroke="white" stroke-width="1.6"/>
<rect x="10.9427" y="0.8" width="8.68571" height="14.4" rx="4.34286" stroke="white" stroke-width="1.6"/>
<path d="M14.671 18.7981L15.2855 19.5356L15.9001 18.7981L17.5904 16.7698C18.1778 16.065 19.0479 15.6574 19.9654 15.6574C21.6728 15.6574 23.057 17.0416 23.057 18.749V23.0003C23.057 23.1107 22.9674 23.2003 22.857 23.2003H7.71411C7.60365 23.2003 7.51411 23.1107 7.51411 23.0003V18.749C7.51411 17.0416 8.89826 15.6574 10.6057 15.6574C11.5232 15.6574 12.3933 16.065 12.9807 16.7698L14.671 18.7981Z" stroke="white" stroke-width="1.6"/>
<path d="M12.0001 3C12.0001 3 13.4726 3.82176 14.5001 4.5C15.678 5.27748 18.4482 6.08667 19.857 6.17143" stroke="white" stroke-width="1.6"/>
</svg>
