<svg width="31" height="26" viewBox="0 0 31 26" fill="none" xmlns="http://www.w3.org/2000/svg">
<path fill-rule="evenodd" clip-rule="evenodd" d="M8.5831 3.94675C6.32048 6.27633 4.92526 9.45282 4.92526 12.9568C4.92526 16.7268 6.53878 20.1191 9.11179 22.4837C4.06396 22.3911 -0.00012207 18.2728 -0.00012207 13.2029C-0.00012207 8.31122 3.78332 4.30598 8.58304 3.94676C10.9341 1.52584 14.2215 0.0195312 17.8627 0.0195312C25.0077 0.0195312 30.7999 5.81173 30.7999 12.9569C30.7999 20.1019 25.0077 25.8942 17.8627 25.8942C14.4876 25.8942 11.4153 24.6007 9.11183 22.4838C9.16964 22.4848 9.22701 22.4881 9.28511 22.4881C14.4133 22.4881 18.5704 18.3309 18.5704 13.2029C18.5704 8.07464 14.4133 3.9176 9.28511 3.9176C9.04865 3.9176 8.8151 3.92937 8.583 3.9468L8.5831 3.94675Z" fill="white"/>
</svg>
