<svg width="24" height="24" viewBox="0 0 24 24" fill="none" xmlns="http://www.w3.org/2000/svg">
<path fill-rule="evenodd" clip-rule="evenodd" d="M3.72497 19.0429C3.82866 19.1489 3.87671 19.3043 3.85167 19.4564L3.36863 22.4125L5.90955 21.0104C6.03336 20.9416 6.18025 20.9416 6.30436 21.01L8.84545 22.4125L8.36265 19.4568C8.33757 19.3045 8.38553 19.1495 8.48927 19.0429L10.5268 16.9578L7.70282 16.527C7.56393 16.5059 7.44273 16.4134 7.37878 16.2778L6.10714 13.5732L4.83536 16.2782C4.77153 16.4136 4.65033 16.5062 4.51167 16.5271L1.6875 16.9578L3.72497 19.0429Z" stroke="white" stroke-width="1.6" stroke-linejoin="round"/>
<path fill-rule="evenodd" clip-rule="evenodd" d="M15.5109 19.0429C15.6145 19.1489 15.6626 19.3043 15.6376 19.4564L15.1545 22.4125L17.6954 21.0104C17.8193 20.9416 17.9661 20.9416 18.0902 21.01L20.6313 22.4125L20.1485 19.4568C20.1235 19.3045 20.1714 19.1495 20.2752 19.0429L22.3127 16.9578L19.4887 16.527C19.3498 16.5059 19.2286 16.4134 19.1647 16.2778L17.893 13.5732L16.6213 16.2782C16.5574 16.4136 16.4362 16.5062 16.2976 16.5271L13.4734 16.9578L15.5109 19.0429Z" stroke="white" stroke-width="1.6" stroke-linejoin="round"/>
<path fill-rule="evenodd" clip-rule="evenodd" d="M3.72497 7.25673C3.82866 7.36281 3.87671 7.51821 3.85167 7.67031L3.36863 10.6264L5.90955 9.22422C6.03336 9.15543 6.18025 9.15543 6.30436 9.22391L8.84545 10.6264L8.36265 7.67063C8.33757 7.51833 8.38553 7.36334 8.48927 7.25675L10.5268 5.17165L7.70282 4.74084C7.56393 4.71981 7.44273 4.62728 7.37878 4.49164L6.10714 1.78711L4.83536 4.49208C4.77153 4.62749 4.65033 4.72002 4.51167 4.74101L1.6875 5.17168L3.72497 7.25673Z" stroke="white" stroke-width="1.6" stroke-linejoin="round"/>
<path fill-rule="evenodd" clip-rule="evenodd" d="M15.5109 7.25673C15.6145 7.36281 15.6626 7.51821 15.6376 7.67031L15.1545 10.6264L17.6954 9.22422C17.8193 9.15543 17.9661 9.15543 18.0902 9.22391L20.6313 10.6264L20.1485 7.67063C20.1235 7.51833 20.1714 7.36334 20.2752 7.25675L22.3127 5.17165L19.4887 4.74084C19.3498 4.71981 19.2286 4.62728 19.1647 4.49164L17.893 1.78711L16.6213 4.49208C16.5574 4.62749 16.4362 4.72002 16.2976 4.74101L13.4734 5.17168L15.5109 7.25673Z" stroke="white" stroke-width="1.6" stroke-linejoin="round"/>
</svg>
