<svg width="18" height="24" viewBox="0 0 18 24" fill="none" xmlns="http://www.w3.org/2000/svg">
<path fill-rule="evenodd" clip-rule="evenodd" d="M6.14954 17.7247V2.72465H10.8054V6.48309C10.8054 7.00106 11.2225 7.42059 11.7365 7.42059H15.4612V17.7247H6.14954ZM12.2022 21.4745H2.42493V6.4745H4.28726V18.662C4.28726 19.18 4.70442 19.5995 5.21842 19.5995H12.2022V21.4745ZM12.6677 4.05062L14.1524 5.54546H12.6677V4.05062ZM17.0506 5.8118L12.3948 1.1243C12.2202 0.948516 11.9832 0.849609 11.7365 0.849609H5.21833C4.70432 0.849609 4.28716 1.26961 4.28716 1.78711V4.59961H1.49367C0.979662 4.59961 0.5625 5.01961 0.5625 5.53711V22.4121C0.5625 22.9301 0.979662 23.3496 1.49367 23.3496H13.1332C13.6472 23.3496 14.0644 22.9301 14.0644 22.4121V19.5996H16.3923C16.9063 19.5996 17.3235 19.1801 17.3235 18.6621V6.47461C17.3235 6.22617 17.2252 5.98758 17.0506 5.8118Z" fill="white"/>
</svg>
