<svg width="26" height="25" viewBox="0 0 26 25" fill="none" xmlns="http://www.w3.org/2000/svg">
<path d="M24.7198 11.001L13.5418 1.20382C13.2316 0.932061 12.7683 0.932061 12.4582 1.20382L1.28014 11.001C0.938819 11.3002 0.904628 11.8195 1.2038 12.161C1.50298 12.5022 2.02237 12.5365 2.36369 12.2373L3.2292 11.4787V23.7032C3.2292 24.1571 3.59715 24.5251 4.05111 24.5251H10.2801H15.7199H21.9488C22.4028 24.5251 22.7707 24.1571 22.7707 23.7032V11.4788L23.6362 12.2374C23.7922 12.374 23.9854 12.4412 24.1776 12.4412C24.4062 12.4412 24.6336 12.3465 24.796 12.1611C25.0954 11.8195 25.0612 11.3003 24.7198 11.001ZM11.102 22.8813V16.1105H14.8979V22.8813L11.102 22.8813ZM21.127 10.0443V22.8813H16.5419V15.2886C16.5419 14.8347 16.1738 14.4667 15.72 14.4667H10.2802C9.82634 14.4667 9.45832 14.8347 9.45832 15.2886V22.8813H4.87309V10.0443C4.87309 10.0422 4.87283 10.0403 4.87283 10.0382L13 2.91485L21.1273 10.0381C21.1273 10.0403 21.127 10.0422 21.127 10.0443Z" fill="white"/>
<path fill-rule="evenodd" clip-rule="evenodd" d="M12.3264 1.05321C12.7119 0.715329 13.288 0.715348 13.6736 1.0532L24.8517 10.8504C25.2761 11.2225 25.3186 11.8681 24.9465 12.2927C24.7444 12.5233 24.4614 12.641 24.1777 12.641C23.9388 12.641 23.6983 12.5574 23.5045 12.3877L22.9707 11.9198V23.703C22.9707 24.2673 22.5133 24.7249 21.9488 24.7249H4.05114C3.48672 24.7249 3.02923 24.2673 3.02923 23.703V11.9198L2.49557 12.3875C2.49556 12.3875 2.49558 12.3874 2.49557 12.3875C2.07115 12.7595 1.4254 12.7169 1.05344 12.2926C0.681505 11.8681 0.723943 11.2224 1.14834 10.8504L12.3264 1.05321ZM12.59 1.35404C12.59 1.35404 12.59 1.35403 12.59 1.35404L1.412 11.1512C1.15376 11.3776 1.12785 11.7706 1.35426 12.029C1.58066 12.2872 1.97365 12.3131 2.23187 12.0867L3.42923 11.0373V23.703C3.42923 24.0464 3.70765 24.3249 4.05114 24.3249H21.9488C22.2923 24.3249 22.5707 24.0464 22.5707 23.703V11.0374L23.768 12.0867C23.768 12.0868 23.768 12.0867 23.768 12.0867C23.8863 12.1903 24.0322 12.241 24.1777 12.241C24.3511 12.241 24.5227 12.1693 24.6456 12.0291C24.8722 11.7706 24.8463 11.3777 24.588 11.1512L13.41 1.35405C13.1753 1.14839 12.8247 1.14841 12.59 1.35404ZM13 2.6487L21.3246 9.94491L21.3272 10.0319C21.3274 10.0389 21.3273 10.0452 21.327 10.0496V23.0811H16.3419V15.2884C16.3419 14.945 16.0634 14.6665 15.72 14.6665H10.2803C9.93683 14.6665 9.65835 14.945 9.65835 15.2884V23.0811H4.67312V10.049C4.673 10.0464 4.67286 10.0426 4.67286 10.038V9.94737L13 2.6487ZM13 3.1806L5.07312 10.1284V22.6811H9.25835V15.2884C9.25835 14.7241 9.71592 14.2665 10.2803 14.2665H15.72C16.2843 14.2665 16.7419 14.724 16.7419 15.2884V22.6811H20.927V10.1284L13 3.1806ZM20.9277 10.0265C20.9278 10.0259 20.9278 10.0262 20.9277 10.0265V10.0265ZM5.07257 10.0281C5.07252 10.0272 5.07259 10.0284 5.07266 10.0298L5.07257 10.0281ZM10.9021 15.9103H15.0979V23.0811L10.9021 23.0811V15.9103ZM11.3021 16.3103V22.6811L14.6979 22.6811V16.3103H11.3021Z" fill="white"/>
</svg>
