<svg width="24" height="19" viewBox="0 0 24 19" fill="none" xmlns="http://www.w3.org/2000/svg">
<path d="M19.8711 4.10215C19.5725 3.80354 19.1037 3.75951 18.7546 3.99738C17.4395 4.89377 10.8432 9.40124 10.1343 10.1101C9.10627 11.1382 9.10627 12.8109 10.1343 13.839C10.6483 14.353 11.3236 14.61 11.9988 14.61C12.6739 14.61 13.3491 14.353 13.8632 13.839C14.5721 13.1301 19.0795 6.53379 19.9759 5.2187C20.2137 4.86965 20.1697 4.40084 19.8711 4.10215ZM12.6202 12.596C12.2775 12.9388 11.7199 12.9388 11.3773 12.596C11.0346 12.2534 11.0346 11.6959 11.3771 11.3533C11.6526 11.0811 13.5254 9.74541 15.8296 8.14376C14.228 10.448 12.8923 12.3207 12.6202 12.596Z" fill="white"/>
<path d="M4.80308 16.0624L3.71808 16.5917C2.92417 15.1748 2.50779 13.5934 2.50779 11.9745C2.50779 10.7884 2.72651 9.65236 3.12566 8.60467L4.3689 9.201C4.49151 9.2598 4.62093 9.28766 4.74841 9.28766C5.07593 9.28766 5.39036 9.10375 5.54148 8.78866C5.75136 8.35102 5.56679 7.82601 5.1291 7.61608L3.90164 7.02731C5.42727 4.53915 8.06691 2.80443 11.121 2.52274V3.84465C11.121 4.33006 11.5145 4.72355 11.9999 4.72355C12.4853 4.72355 12.8788 4.33006 12.8788 3.84465V2.52209C13.9259 2.6174 14.9391 2.88406 15.901 3.31823C16.3433 3.51796 16.8639 3.32113 17.0636 2.87883C17.2633 2.43639 17.0666 1.91587 16.6242 1.71614C15.1667 1.05824 13.6109 0.724609 11.9999 0.724609C8.99493 0.724609 6.16985 1.89477 4.04498 4.01959C1.92021 6.14446 0.75 8.96954 0.75 11.9745C0.75 14.195 1.40908 16.3546 2.65602 18.2197C2.82398 18.4709 3.10166 18.6102 3.38722 18.6102C3.51703 18.6102 3.64851 18.5814 3.77204 18.5212L5.57378 17.6423C6.01007 17.4295 6.19121 16.9033 5.97838 16.467C5.76556 16.0308 5.23936 15.8497 4.80308 16.0624Z" fill="white"/>
<path d="M22.2584 7.35055C22.0587 6.90816 21.5382 6.71129 21.0957 6.9111C20.6533 7.11083 20.4565 7.63136 20.6563 8.07375C21.2109 9.30236 21.4921 10.6149 21.4921 11.9748C21.4921 13.5961 21.0744 15.1801 20.2782 16.5986L19.1454 16.0591C18.7072 15.8505 18.1827 16.0365 17.974 16.4748C17.7653 16.913 17.9514 17.4375 18.3897 17.6462L20.2354 18.5251C20.3568 18.5829 20.4855 18.6105 20.6128 18.6105C20.8984 18.6105 21.1761 18.471 21.3439 18.22C22.5909 16.3549 23.2499 14.1953 23.2499 11.9748C23.2499 10.3638 22.9163 8.80798 22.2584 7.35055Z" fill="white"/>
</svg>
