<svg width="22" height="22" viewBox="0 0 22 22" fill="none" xmlns="http://www.w3.org/2000/svg">
<path d="M20.2569 8.93457L18.8092 8.68898C18.6584 8.20211 18.4646 7.73248 18.2276 7.28439L19.0807 6.09093C19.4426 5.58252 19.3866 4.88884 18.9428 4.44937L17.6589 3.16543C17.4176 2.92415 17.0987 2.79058 16.7584 2.79058C16.4912 2.79058 16.237 2.87244 16.0216 3.02755L14.8238 3.88064C14.3585 3.63506 13.8716 3.43256 13.3675 3.28176L13.1263 1.85132C13.0229 1.2352 12.4929 0.787109 11.8682 0.787109H10.0543C9.42954 0.787109 8.89959 1.2352 8.79618 1.85132L8.54628 3.31622C8.06373 3.46702 7.5941 3.66522 7.14601 3.9065L5.96116 3.0534C5.74573 2.8983 5.48722 2.81643 5.22009 2.81643C4.87971 2.81643 4.55657 2.95 4.3196 3.19128L3.03135 4.47522C2.59188 4.91469 2.53156 5.60837 2.89347 6.11678L3.75518 7.32748C3.51821 7.77988 3.32864 8.24951 3.18215 8.73637L1.75171 8.97765C1.13559 9.08106 0.6875 9.61101 0.6875 10.2357V12.0496C0.6875 12.6744 1.13559 13.2043 1.75171 13.3077L3.21662 13.5576C3.36741 14.0402 3.56561 14.5098 3.80689 14.9579L2.9581 16.1385C2.59619 16.6469 2.6522 17.3405 3.09598 17.78L4.37992 19.064C4.6212 19.3052 4.94003 19.4388 5.28041 19.4388C5.54754 19.4388 5.80174 19.3569 6.01717 19.2018L7.22787 18.3401C7.66303 18.5685 8.11974 18.7537 8.58937 18.9002L8.83065 20.3479C8.93405 20.964 9.464 21.4121 10.0887 21.4121H11.9069C12.5317 21.4121 13.0616 20.964 13.165 20.3479L13.4106 18.9002C13.8975 18.7494 14.3671 18.5555 14.8152 18.3186L16.0087 19.1717C16.2241 19.3268 16.4826 19.4086 16.7498 19.4086C17.0901 19.4086 17.409 19.2751 17.6502 19.0338L18.9342 17.7498C19.3737 17.3104 19.434 16.6167 19.0721 16.1083L18.219 14.9105C18.4559 14.4581 18.6541 13.9885 18.8006 13.5059L20.2483 13.2647C20.8644 13.1612 21.3125 12.6313 21.3125 12.0066V10.1927C21.3211 9.56792 20.873 9.03797 20.2569 8.93457ZM20.1578 12.0066C20.1578 12.0626 20.119 12.11 20.063 12.1186L18.2534 12.4202C18.0251 12.459 17.8441 12.627 17.7881 12.8467C17.6244 13.4801 17.3745 14.0876 17.0384 14.652C16.9221 14.8502 16.9307 15.0958 17.0643 15.2854L18.1285 16.7847C18.1586 16.8278 18.1543 16.8924 18.1156 16.9312L16.8316 18.2152C16.8015 18.2453 16.7713 18.2496 16.7498 18.2496C16.7239 18.2496 16.7024 18.241 16.6851 18.2281L15.1901 17.1639C15.0048 17.0303 14.7549 17.0217 14.5567 17.138C13.9923 17.4741 13.3848 17.724 12.7514 17.8877C12.5274 17.9437 12.3593 18.129 12.3249 18.353L12.019 20.1626C12.0104 20.2186 11.963 20.2574 11.9069 20.2574H10.0931C10.037 20.2574 9.98965 20.2186 9.98103 20.1626L9.67943 18.353C9.64065 18.1247 9.47262 17.9437 9.25289 17.8877C8.63676 17.7283 8.04219 17.4827 7.48638 17.1639C7.3959 17.1122 7.2925 17.0863 7.1934 17.0863C7.07707 17.0863 6.95643 17.1208 6.85734 17.194L5.34934 18.2669C5.3278 18.2798 5.30626 18.2884 5.28472 18.2884C5.26748 18.2884 5.23301 18.2841 5.20285 18.2539L3.91891 16.97C3.88013 16.9312 3.87582 16.8709 3.90598 16.8235L4.96588 15.3371C5.09945 15.1475 5.10807 14.8976 4.99174 14.6994C4.65567 14.1393 4.39716 13.5318 4.23343 12.8984C4.17311 12.6787 3.99215 12.5107 3.76811 12.4719L1.94559 12.1617C1.88958 12.153 1.85081 12.1057 1.85081 12.0496V10.2357C1.85081 10.1797 1.88958 10.1323 1.94559 10.1237L3.74226 9.82213C3.97061 9.78335 4.15588 9.61532 4.21189 9.39127C4.37131 8.75792 4.61689 8.1461 4.94865 7.58168C5.06498 7.38349 5.05205 7.1379 4.91849 6.95264L3.84566 5.44465C3.8155 5.40156 3.81981 5.33693 3.85859 5.29816L5.14253 4.01421C5.17269 3.98405 5.20285 3.97974 5.2244 3.97974C5.25025 3.97974 5.27179 3.98836 5.28903 4.00128L6.77547 5.06119C6.96505 5.19475 7.21494 5.20337 7.41314 5.08704C7.97325 4.75097 8.58075 4.49246 9.21411 4.32873C9.43384 4.26841 9.60188 4.08745 9.64065 3.86341L9.95087 2.0409C9.95949 1.98488 10.0069 1.94611 10.0629 1.94611H11.8768C11.9328 1.94611 11.9802 1.98488 11.9888 2.0409L12.2904 3.83756C12.3292 4.06591 12.4972 4.25118 12.7213 4.30719C13.3719 4.47091 13.9923 4.72512 14.5696 5.06549C14.7678 5.18182 15.0134 5.17321 15.203 5.03964L16.6894 3.97112C16.711 3.9582 16.7325 3.94958 16.7541 3.94958C16.7713 3.94958 16.8058 3.95389 16.8359 3.98405L18.1199 5.268C18.1586 5.30677 18.163 5.36709 18.1328 5.41449L17.0686 6.90955C16.935 7.09482 16.9264 7.34471 17.0427 7.54291C17.3788 8.10733 17.6287 8.71483 17.7924 9.34819C17.8484 9.57223 18.0337 9.74026 18.2577 9.77473L20.0673 10.0806C20.1233 10.0893 20.1621 10.1367 20.1621 10.1927V12.0066H20.1578Z" fill="white" stroke="white" stroke-width="0.2"/>
<path d="M11.002 6.64648C8.54613 6.64648 6.55127 8.64134 6.55127 11.0972C6.55127 13.5531 8.54613 15.5479 11.002 15.5479C13.4579 15.5479 15.4527 13.5531 15.4527 11.0972C15.4527 8.64134 13.4579 6.64648 11.002 6.64648ZM11.002 14.3846C9.1881 14.3846 7.71458 12.9111 7.71458 11.0972C7.71458 9.28331 9.1881 7.80979 11.002 7.80979C12.8159 7.80979 14.2894 9.28331 14.2894 11.0972C14.2894 12.9111 12.8159 14.3846 11.002 14.3846Z" fill="white" stroke="white" stroke-width="0.2"/>
</svg>
