<svg width="23" height="19" viewBox="0 0 23 19" fill="none" xmlns="http://www.w3.org/2000/svg">
<path fill-rule="evenodd" clip-rule="evenodd" d="M18.4559 1.8887C19.0124 1.72201 19.5501 1.49693 20.0598 1.21701C20.4294 0.981858 20.9055 0.989116 21.2685 1.239C21.6431 1.49684 21.8194 1.95934 21.7114 2.4011C21.7082 2.41436 21.7046 2.42752 21.7005 2.44057C21.6706 2.53725 21.6376 2.63283 21.6016 2.72717C21.7381 2.78557 21.8642 2.87238 21.9704 2.98605C21.9789 2.99509 21.9871 3.00436 21.995 3.01385C22.2896 3.36594 22.3333 3.86436 22.1046 4.26235C22.0985 4.27297 22.0921 4.28343 22.0854 4.2937C21.5923 5.05251 20.9873 5.7315 20.2914 6.30787C20.3451 9.44934 19.18 12.495 17.0332 14.8009C14.7906 17.3951 11.5394 18.8984 8.10997 18.9264L8.10853 18.9264C5.69463 18.9409 3.32109 18.3072 1.23576 17.0913C0.785166 16.8313 0.579487 16.2901 0.744076 15.7963C0.908435 15.3032 1.39659 14.9938 1.91224 15.0551C2.9275 15.1674 3.94908 15.0587 4.9088 14.7432C3.8247 14.0992 2.9532 13.1292 2.43209 11.9523L2.42639 11.939C2.28339 11.5964 2.32484 11.2085 2.52807 10.9063C1.64982 9.9335 1.13742 8.66663 1.11079 7.32821C1.0839 6.90137 1.3082 6.49868 1.68278 6.29623C1.24053 4.92363 1.38391 3.40275 2.12763 2.11486L2.71115 2.45182L2.12672 2.11644C2.30891 1.79896 2.63766 1.5935 3.00286 1.56885C3.03251 1.56685 3.06225 1.56681 3.0919 1.56874C3.42998 1.5907 3.73914 1.76433 3.93392 2.03963C5.5356 4.00186 7.79923 5.29703 10.2841 5.69205C10.3019 5.1484 10.3855 4.54973 10.5725 3.96713C10.8602 3.07051 11.4103 2.1653 12.3889 1.60625C13.2431 1.05245 14.2346 0.747162 15.2527 0.724778L15.2664 0.724616C16.4381 0.722705 17.5675 1.13801 18.4559 1.8887ZM2.49808 7.79933C2.66024 8.949 3.29865 9.98777 4.27068 10.6509C4.54347 10.837 4.64119 11.1934 4.5015 11.4926C4.39088 11.7295 4.1572 11.8753 3.90691 11.8813C4.53153 12.9519 5.55206 13.7452 6.75961 14.0808C7.02107 14.1535 7.21342 14.3759 7.24762 14.6451C7.28183 14.9143 7.15121 15.1778 6.91623 15.3135C5.68823 16.0229 4.30695 16.4085 2.90125 16.4432C4.52466 17.1998 6.29992 17.5896 8.10014 17.5788C11.1455 17.5536 14.0322 16.2168 16.0213 13.9107C16.027 13.9041 16.0329 13.8976 16.0389 13.8912C18.0232 11.7643 19.067 8.92769 18.9343 6.02193C18.9242 5.80135 19.0229 5.58983 19.1983 5.45577C19.6589 5.10383 20.077 4.70088 20.4447 4.25523C20.1851 4.29596 19.9223 4.1815 19.7763 3.95771C19.617 3.71371 19.6327 3.39501 19.815 3.16777C19.9362 3.01674 20.0441 2.85602 20.1376 2.68744C19.5927 2.94096 19.0247 3.14296 18.4411 3.29049C18.2116 3.34851 17.9685 3.28185 17.8007 3.1149C17.1297 2.4473 16.2218 2.07252 15.2754 2.07226C14.5044 2.0905 13.7537 2.32386 13.1082 2.74607C13.0957 2.75423 13.083 2.76197 13.07 2.76928C12.4599 3.11287 12.0758 3.69312 11.8556 4.37897C11.6341 5.06918 11.5965 5.81807 11.6491 6.39328C11.6673 6.59173 11.5967 6.78804 11.4563 6.92945C11.3159 7.07086 11.12 7.14287 10.9215 7.12612C7.89422 6.87082 5.09225 5.44171 3.10946 3.15288C2.57438 4.35964 2.69522 5.76962 3.45235 6.87431C3.63486 7.1406 3.60286 7.49891 3.37606 7.72865C3.14926 7.95838 2.79138 7.99498 2.52277 7.81591C2.51455 7.81043 2.50632 7.8049 2.49808 7.79933ZM8.10447 18.2525L8.10447 18.2526L8.10447 18.2525C3.3664 11.7596 3.36422 11.7589 3.36205 11.7582L3.36858 11.7602" fill="white"/>
</svg>
